grf
version=1
nRows=17
nColumns=37
inDegrees=no
endheader
time	ground_force_1_vx	ground_force_1_vy	ground_force_1_vz	ground_force_1_px	ground_force_1_py	ground_force_1_pz	ground_moment_1_mx	ground_moment_1_my	ground_moment_1_mz	ground_force_2_vx	ground_force_2_vy	ground_force_2_vz	ground_force_2_px	ground_force_2_py	ground_force_2_pz	ground_moment_2_mx	ground_moment_2_my	ground_moment_2_mz	ground_force_3_vx	ground_force_3_vy	ground_force_3_vz	ground_force_3_px	ground_force_3_py	ground_force_3_pz	ground_moment_3_mx	ground_moment_3_my	ground_moment_3_mz	ground_force_4_vx	ground_force_4_vy	ground_force_4_vz	ground_force_4_px	ground_force_4_py	ground_force_4_pz	ground_moment_4_mx	ground_moment_4_my	ground_moment_4_mz
      4.98000000	      0.00000000	     -0.00000000	      0.00000000	      0.00000000	      0.00000000	      0.00000000	      0.00000000	      0.00000000	      0.00000000	    -14.76020718	     80.54541016	   -456.58157349	   -375.07306154	  -1087.33844464	      0.00000000	     -0.00000000	      0.00000000	   9873.54594148	    -11.01538571	    -99.14039516	   -522.48901367	   -369.95100788	   -542.13235126	      0.00000000	      0.00000000	     -0.00000000	  -2944.76075169	    -34.99859095	     16.33358498	     75.88541412	    603.08237817	   -564.34482656	      0.00000000	     -0.00000000	     -0.00000000	      8.08858725
      4.99000000	      0.00000000	     -0.00000000	      0.00000000	      0.00000000	      0.00000000	      0.00000000	      0.00000000	      0.00000000	      0.00000000	    -12.62732124	     76.64408875	   -446.30718994	   -379.21424417	  -1085.06874475	      0.00000000	      0.00000000	      0.00000000	   9246.55710099	     -3.14095275	    -94.54432651	   -515.42706299	   -375.16196731	   -544.23571389	      0.00000000	      0.00000000	     -0.00000000	  -2575.53095472	    -35.58408975	     16.48494078	     76.31650543	    601.93362704	   -560.79300527	      0.00000000	      0.00000000	      0.00000000	    -42.02617129
      5.00000000	      0.00000000	     -0.00000000	      0.00000000	      0.00000000	      0.00000000	      0.00000000	      0.00000000	      0.00000000	      0.00000000	    -10.29993153	     73.26519775	   -437.99301147	   -383.95368863	  -1083.99714893	      0.00000000	      0.00000000	      0.00000000	   9252.76812160	      4.76557608	    -90.54206890	   -509.20422363	   -380.28194726	   -546.25194862	      0.00000000	      0.00000000	     -0.00000000	  -2126.08518962	    -34.88116317	     15.77814693	     78.05157471	    594.88583807	   -556.74901521	      0.00000000	      0.00000000	     -0.00000000	    -90.10600366
      5.01000000	      0.00000000	     -0.00000000	      0.00000000	      0.00000000	      0.00000000	      0.00000000	      0.00000000	      0.00000000	      0.00000000	     -8.21498680	     70.45378113	   -432.08016968	   -388.45910658	  -1083.84903841	      0.00000000	      0.00000000	      0.00000000	   8910.16523081	     11.30187416	    -87.22637275	   -501.19204712	   -384.20367311	   -547.47341151	      0.00000000	      0.00000000	     -0.00000000	  -1733.56799451	    -35.38456965	     16.25636219	     76.10562897	    602.80347465	   -560.80521288	      0.00000000	      0.00000000	     -0.00000000	   -123.79626599
      5.02000000	      0.00000000	     -0.00000000	      0.00000000	      0.00000000	      0.00000000	      0.00000000	      0.00000000	      0.00000000	      0.00000000	     -4.83040714	     67.01126099	   -425.52316284	   -392.36897107	  -1082.22058404	      0.00000000	      0.00000000	      0.00000000	   8606.61030278	     15.20478553	    -85.14210643	   -491.33627319	   -389.08133468	   -549.55196662	      0.00000000	      0.00000000	     -0.00000000	  -1610.84083139	    -35.45338297	     16.35381627	     75.07518005	    607.14165426	   -564.00682665	      0.00000000	      0.00000000	      0.00000000	      4.33030094
      5.03000000	      0.00000000	     -0.00000000	      0.00000000	      0.00000000	      0.00000000	      0.00000000	      0.00000000	      0.00000000	      0.00000000	     -3.62368631	     64.72207642	   -418.24630737	   -395.93234166	  -1081.87591148	      0.00000000	      0.00000000	      0.00000000	   8159.64680570	     19.18907593	    -81.98282028	   -485.32073975	   -393.02607753	   -551.20170249	      0.00000000	      0.00000000	     -0.00000000	  -1477.39992725	    -35.32911158	     16.33300136	     76.04833984	    603.80659321	   -562.15218315	      0.00000000	      0.00000000	     -0.00000000	    -50.77196629
      5.04000000	      0.00000000	     -0.00000000	      0.00000000	      0.00000000	      0.00000000	      0.00000000	      0.00000000	      0.00000000	      0.00000000	     -2.83415842	     62.10333252	   -410.61218262	   -399.43794027	  -1080.43362066	      0.00000000	     -0.00000000	      0.00000000	   7810.38952613	     23.80188074	    -77.51915949	   -480.94268799	   -398.12745112	   -552.88005447	      0.00000000	      0.00000000	     -0.00000000	  -1277.70237493	    -35.58379604	     16.19453741	     75.91333008	    603.56132482	   -564.01023383	      0.00000000	      0.00000000	      0.00000000	     70.41759448
      5.05000000	      0.00000000	     -0.00000000	      0.00000000	      0.00000000	      0.00000000	      0.00000000	      0.00000000	      0.00000000	      0.00000000	     -1.93526280	     58.25719070	   -401.48400879	   -403.95445365	  -1079.09936281	      0.00000000	     -0.00000000	      0.00000000	   7647.13230291	     28.46249883	    -74.44840489	   -480.70120239	   -403.51465211	   -555.94847256	      0.00000000	      0.00000000	     -0.00000000	  -1499.77678237	    -35.51501323	     16.22202802	     75.31822968	    607.17928284	   -563.48146033	      0.00000000	      0.00000000	     -0.00000000	    -13.88794633
      5.06000000	      0.00000000	     -0.00000000	      0.00000000	      0.00000000	      0.00000000	      0.00000000	      0.00000000	      0.00000000	      0.00000000	     -1.40667832	     54.49357224	   -391.05212402	   -407.87362693	  -1078.30425575	      0.00000000	      0.00000000	      0.00000000	   7300.74926122	     31.04876852	    -70.93629727	   -478.76776123	   -407.89636559	   -558.04675725	      0.00000000	      0.00000000	     -0.00000000	  -1247.46691089	    -35.20506524	     16.47080538	     74.97261047	    606.71092820	   -563.63418110	      0.00000000	      0.00000000	     -0.00000000	   -207.55182269
      5.07000000	      0.00000000	     -0.00000000	      0.00000000	      0.00000000	      0.00000000	      0.00000000	      0.00000000	      0.00000000	      0.00000000	      0.16392565	     51.71011734	   -381.45907593	   -411.34138961	  -1076.72207272	      0.00000000	     -0.00000000	      0.00000000	   6886.22901242	     30.91254782	    -68.28061183	   -472.56433105	   -412.25969232	   -559.66144036	      0.00000000	      0.00000000	     -0.00000000	  -1268.18827595	    -35.52112818	     16.30546117	     75.86340332	    604.66453561	   -561.58565582	      0.00000000	      0.00000000	     -0.00000000	   -186.58067472
      5.08000000	      0.00000000	     -0.00000000	      0.00000000	      0.00000000	      0.00000000	      0.00000000	      0.00000000	      0.00000000	      0.00000000	      2.30459905	     48.87318039	   -371.16857910	   -416.41863006	  -1075.66438314	      0.00000000	      0.00000000	      0.00000000	   6729.91914038	     29.71810718	    -65.96432755	   -466.38519287	   -416.24189096	   -561.53841749	      0.00000000	      0.00000000	     -0.00000000	  -1275.99854237	    -35.43136837	     16.12559819	     75.53675079	    608.40750656	   -564.58283290	      0.00000000	      0.00000000	      0.00000000	    132.92967478
      5.09000000	      0.00000000	     -0.00000000	      0.00000000	      0.00000000	      0.00000000	      0.00000000	      0.00000000	      0.00000000	      0.00000000	      5.23322725	     46.80854416	   -360.57388306	   -420.12780530	  -1074.17560110	      0.00000000	     -0.00000000	      0.00000000	   6074.33744294	     29.32182517	    -63.83595532	   -457.63327026	   -420.73807999	   -564.42025330	      0.00000000	      0.00000000	     -0.00000000	  -1364.58880368	    -35.50937510	     16.28450704	     76.07440186	    606.06735268	   -563.95303831	      0.00000000	      0.00000000	     -0.00000000	    -36.67849571
      5.10000000	      0.00000000	     -0.00000000	      0.00000000	      0.00000000	      0.00000000	      0.00000000	      0.00000000	      0.00000000	      0.00000000	      7.51459646	     43.68368912	   -349.67016602	   -425.25053395	  -1072.34793880	      0.00000000	      0.00000000	      0.00000000	   5478.03700829	     29.87475811	    -61.48697924	   -452.35916138	   -424.92683331	   -565.81899649	      0.00000000	      0.00000000	     -0.00000000	  -1243.79162617	    -35.13074352	     16.12023851	     76.26031494	    602.24184961	   -562.16505233	      0.00000000	      0.00000000	     -0.00000000	     -6.80570468
      5.11000000	      0.00000000	     -0.00000000	      0.00000000	      0.00000000	      0.00000000	      0.00000000	      0.00000000	      0.00000000	      0.00000000	      9.61374569	     40.00905609	   -337.91012573	   -429.70406350	  -1071.13663735	      0.00000000	      0.00000000	      0.00000000	   5212.84622525	     30.49565748	    -59.61183815	   -446.48287964	   -428.80370511	   -568.73719306	      0.00000000	      0.00000000	      0.00000000	  -1027.10845363	    -35.35718011	     16.44839214	     76.87861633	    602.14500611	   -559.56632758	      0.00000000	      0.00000000	     -0.00000000	    -73.60242650
      5.12000000	      0.00000000	     -0.00000000	      0.00000000	      0.00000000	      0.00000000	      0.00000000	      0.00000000	      0.00000000	      0.00000000	     10.82060432	     38.32607269	   -328.68685913	   -434.48954251	  -1069.63605056	      0.00000000	      0.00000000	      0.00000000	   5043.60113802	     30.86616961	    -58.14162333	   -440.36239624	   -433.38713073	   -570.55446053	      0.00000000	      0.00000000	     -0.00000000	   -968.14483279	    -35.06771710	     16.05708047	     75.18661499	    607.38039346	   -565.68419932	      0.00000000	      0.00000000	      0.00000000	    118.60664364
      5.13000000	      0.00000000	     -0.00000000	      0.00000000	      0.00000000	      0.00000000	      0.00000000	      0.00000000	      0.00000000	      0.00000000	      9.94450188	     36.27113724	   -321.58013916	   -438.20866013	  -1069.48538890	      0.00000000	      0.00000000	      0.00000000	   4499.01957599	     30.00516393	    -56.97248340	   -434.65432739	   -436.90441054	   -572.06001280	      0.00000000	      0.00000000	     -0.00000000	   -879.27647408	    -35.35725643	     16.15197109	     75.78680420	    607.54126959	   -564.43276052	      0.00000000	      0.00000000	     -0.00000000	    -19.17432459
      5.14000000	      0.00000000	     -0.00000000	      0.00000000	      0.00000000	      0.00000000	      0.00000000	      0.00000000	      0.00000000	      0.00000000	      8.67456245	     35.94067764	   -309.82254028	   -442.23845575	  -1067.76969425	      0.00000000	     -0.00000000	      0.00000000	   4102.44805069	     28.13760081	    -55.58677919	   -427.89456177	   -440.35993915	   -574.33400904	      0.00000000	      0.00000000	     -0.00000000	   -807.69968943	    -35.42555095	     16.17317700	     74.19987488	    612.84936029	   -565.74562093	      0.00000000	      0.00000000	     -0.00000000	    -95.18664258
